<?xml version="1.0" encoding="UTF-8"?>
<mxfile>
  <diagram id="sequence-diagram" name="Page-1">
    <mxGraphModel dx="1224" dy="789" grid="1" gridSize="10" guides="1" tooltips="1" connect="1" arrows="1" fold="1" page="1" pageScale="1" pageWidth="827" pageHeight="1169" math="0" shadow="0">
      <root>
        <mxCell id="0"/>
        <mxCell id="1" parent="0"/>
        
        <!-- Client Actor -->
        <mxCell id="2" value="Client" style="shape=umlActor;" vertex="1" parent="1">
          <mxGeometry x="40" y="40" width="50" height="100" as="geometry"/>
        </mxCell>
        
        <!-- Lifelines -->
        <mxCell id="3" value=":ProfileViewer" style="shape=umlLifeline;" vertex="1" parent="1">
          <mxGeometry x="150" y="40" width="100" height="500" as="geometry"/>
        </mxCell>
        
        <mxCell id="4" value=":ProfileController" style="shape=umlLifeline;" vertex="1" parent="1">
          <mxGeometry x="350" y="40" width="100" height="500" as="geometry"/>
        </mxCell>
        
        <mxCell id="5" value=":Profile" style="shape=umlLifeline;" vertex="1" parent="1">
          <mxGeometry x="550" y="40" width="100" height="500" as="geometry"/>
        </mxCell>
        
        <!-- Messages -->
        <mxCell id="6" value="edit()" style="edgeStyle=elbowEdgeStyle;" edge="1" parent="1" source="2" target="3">
          <mxGeometry relative="1" as="geometry"/>
        </mxCell>
        
        <mxCell id="7" value="getProfile()" style="edgeStyle=elbowEdgeStyle;" edge="1" parent="1" source="3" target="4">
          <mxGeometry relative="1" as="geometry"/>
        </mxCell>
        
        <mxCell id="8" value="getInfo()" style="edgeStyle=elbowEdgeStyle;" edge="1" parent="1" source="4" target="5">
          <mxGeometry relative="1" as="geometry"/>
        </mxCell>
        
        <mxCell id="9" value="info" style="dashed=1;" edge="1" parent="1" source="5" target="4">
          <mxGeometry relative="1" as="geometry"/>
        </mxCell>
        
        <mxCell id="10" value="profile" style="dashed=1;" edge="1" parent="1" source="4" target="3">
          <mxGeometry relative="1" as="geometry"/>
        </mxCell>
        
        <!-- Loop Frame -->
        <mxCell id="11" value="loop" style="swimlane;" vertex="1" parent="1">
          <mxGeometry x="100" y="200" width="500" height="100" as="geometry"/>
        </mxCell>
        
        <mxCell id="12" value="input()" style="edgeStyle=elbowEdgeStyle;" edge="1" parent="1" source="2" target="3">
          <mxGeometry relative="1" as="geometry"/>
        </mxCell>
        
        <mxCell id="13" value="update()" style="edgeStyle=elbowEdgeStyle;" edge="1" parent="1" source="3" target="4">
          <mxGeometry relative="1" as="geometry"/>
        </mxCell>
        
        <mxCell id="14" value="updateProfile()" style="edgeStyle=elbowEdgeStyle;" edge="1" parent="1" source="4" target="5">
          <mxGeometry relative="1" as="geometry"/>
        </mxCell>
        
        <mxCell id="15" value="update()" style="edgeStyle=elbowEdgeStyle;" edge="1" parent="1" source="5" target="4">
          <mxGeometry relative="1" as="geometry"/>
        </mxCell>
        
        <!-- Alternative (Alt) Frame -->
        <mxCell id="16" value="alt" style="swimlane;" vertex="1" parent="1">
          <mxGeometry x="200" y="350" width="400" height="100" as="geometry"/>
        </mxCell>
        
        <mxCell id="17" value="fail" style="dashed=1;" edge="1" parent="1" source="5" target="4">
          <mxGeometry relative="1" as="geometry"/>
        </mxCell>
        
        <mxCell id="18" value="fail" style="dashed=1;" edge="1" parent="1" source="4" target="3">
          <mxGeometry relative="1" as="geometry"/>
        </mxCell>
      </root>
    </mxGraphModel>
  </diagram>
</mxfile>
